<svg width="20" height="17" viewBox="0 0 20 17" fill="none" xmlns="http://www.w3.org/2000/svg">
<path d="M16.175 14H13C12.7167 14 12.4793 13.904 12.288 13.712C12.0967 13.52 12.0007 13.2827 12 13C11.9993 12.7173 12.0953 12.48 12.288 12.288C12.4807 12.096 12.718 12 13 12H16.175L15.275 11.1C15.0917 10.9167 15 10.6877 15 10.413C15 10.1383 15.1 9.90067 15.3 9.7C15.4833 9.51667 15.7167 9.425 16 9.425C16.2833 9.425 16.5167 9.51667 16.7 9.7L19.3 12.3C19.3833 12.3833 19.45 12.4873 19.5 12.612C19.55 12.7367 19.575 12.866 19.575 13C19.575 13.134 19.55 13.263 19.5 13.387C19.45 13.511 19.3833 13.6153 19.3 13.7L16.7 16.3C16.5167 16.4833 16.2877 16.5793 16.013 16.588C15.7383 16.5967 15.5007 16.5007 15.3 16.3C15.1167 16.1167 15.025 15.8833 15.025 15.6C15.025 15.3167 15.1167 15.0833 15.3 14.9L16.175 14ZM2 14C1.45 14 0.979333 13.8043 0.588 13.413C0.196667 13.0217 0.000666667 12.5507 0 12V2C0 1.45 0.196 0.979333 0.588 0.588C0.98 0.196667 1.45067 0.000666667 2 0H15C15.55 0 16.021 0.196 16.413 0.588C16.805 0.98 17.0007 1.45067 17 2V6.075C17 6.34167 16.9 6.575 16.7 6.775C16.5 6.975 16.2667 7.075 16 7.075C15.7167 7.075 15.4793 6.979 15.288 6.787C15.0967 6.595 15.0007 6.358 15 6.076V3.4L8.4 8L2 3.425V12H9.075C9.35833 12 9.596 12.096 9.788 12.288C9.98 12.48 10.0757 12.7173 10.075 13C10.0743 13.2827 9.97867 13.5203 9.788 13.713C9.59733 13.9057 9.35967 14.0013 9.075 14H2ZM3.45 2L8.4 5.55L13.5 2H3.45Z" fill="currentColor"/>
</svg>
