<?xml version="1.0" encoding="UTF-8"?>
<svg id="Lager_1" data-name="Lager 1" xmlns="http://www.w3.org/2000/svg" viewBox="0 0 75.88 75.88">
  <defs>
    <style>
      .cls-1 {
        fill: currentColor;
      }
    </style>
  </defs>
  <path class="cls-1" d="M37.94,2.28c4.82,0,9.48.94,13.88,2.8,4.25,1.8,8.06,4.37,11.34,7.64,3.28,3.28,5.85,7.09,7.64,11.34,1.86,4.39,2.8,9.06,2.8,13.88s-.94,9.48-2.8,13.88c-1.8,4.25-4.37,8.06-7.64,11.34-3.28,3.28-7.09,5.85-11.34,7.64-4.39,1.86-9.06,2.8-13.88,2.8s-9.48-.94-13.88-2.8c-4.25-1.8-8.06-4.37-11.34-7.64-3.28-3.28-5.85-7.09-7.64-11.34-1.86-4.39-2.8-9.06-2.8-13.88s.94-9.48,2.8-13.88c1.8-4.25,4.37-8.06,7.64-11.34,3.28-3.28,7.09-5.85,11.34-7.64,4.39-1.86,9.06-2.8,13.88-2.8M37.94,0C16.99,0,0,16.99,0,37.94s16.99,37.94,37.94,37.94,37.94-16.99,37.94-37.94S58.89,0,37.94,0h0Z"/>
  <g>
    <path class="cls-1" d="M55.35,47.14c-.62-.97-1.45-1.77-2.5-2.41-1.04-.64-2.22-1.17-3.52-1.59-1.3-.42-2.64-.8-4.02-1.14-1.38-.33-2.72-.68-4.02-1.04-1.3-.36-2.48-.79-3.52-1.27-.66-.31-1.24-.67-1.73-1.09v2.97c.83.42,1.73.78,2.71,1.09,1.3.41,2.65.78,4.04,1.11,1.39.33,2.74.69,4.04,1.07,1.3.38,2.47.83,3.5,1.34,1.03.52,1.85,1.17,2.48,1.98.62.8.93,1.81.93,3.02s-.28,2.2-.84,2.98c-.56.77-1.27,1.39-2.14,1.84-.86.45-1.77.8-2.73,1.02-.95.23-1.84.37-2.66.43-.82.06-1.42.09-1.82.09-1.82,0-3.49-.23-5.02-.7-1.53-.47-2.75-1.2-3.66-2.18-.91-.98-1.36-2.22-1.36-3.7,0-.18,0-.39.02-.61.01-.23.04-.42.07-.57h-2.5c-.03.21-.05.37-.05.48v.39c0,1.82.36,3.31,1.07,4.47.71,1.17,1.67,2.09,2.88,2.77,1.21.68,2.6,1.16,4.16,1.43,1.56.27,3.17.41,4.84.41,2.42,0,4.55-.32,6.38-.95,1.83-.64,3.27-1.62,4.32-2.95,1.04-1.33,1.57-3.03,1.57-5.09,0-1.42-.31-2.62-.93-3.59Z"/>
    <path class="cls-1" d="M38.59,30.37c1.47-.48,3.38-.73,5.75-.73,1.57,0,3,.24,4.27.73,1.27.48,2.29,1.16,3.04,2.02.76.86,1.14,1.9,1.14,3.11v.95h2.45v-.55c0-1.48-.29-2.76-.86-3.82-.58-1.06-1.38-1.93-2.41-2.61-1.03-.68-2.22-1.19-3.57-1.52-1.35-.33-2.81-.5-4.38-.5-2.27,0-4.19.2-5.75.61-.83.22-1.57.48-2.23.79v2.8c.65-.51,1.5-.94,2.55-1.29Z"/>
    <polygon class="cls-1" points="33.59 30.6 33.59 18.34 45.26 18.34 45.26 16.16 19.6 16.16 19.6 18.34 31.14 18.34 31.14 47.32 33.59 47.32 33.59 39.84 33.59 39.84 33.59 30.6 33.59 30.6"/>
  </g>
</svg>